<svg data-name="Layer 1" xmlns="http://www.w3.org/2000/svg" viewBox="0 0 50 50"><path fill="#1b152b" d="M0 0h50v50H0z"/><path d="M26 39.48h-8.9a3.66 3.66 0 0 1-2.74-.86 3.86 3.86 0 0 1-.82-2.74V14.11a3.79 3.79 0 0 1 .84-2.76 3.73 3.73 0 0 1 2.72-.84h9.38a21.93 21.93 0 0 1 3.6.26 7.67 7.67 0 0 1 2.73 1 7.16 7.16 0 0 1 1.82 1.55 6.85 6.85 0 0 1 1.21 2.07 6.94 6.94 0 0 1 .41 2.4q0 4.35-4.35 6.36 5.71 1.82 5.71 7.07a8 8 0 0 1-1.24 4.38A7.47 7.47 0 0 1 33 38.47a11.93 11.93 0 0 1-3 .78 31 31 0 0 1-4 .23zm-6.59-24.56v7.49h5.37a10.79 10.79 0 0 0 3.4-.41A3.23 3.23 0 0 0 30 20.42a3.56 3.56 0 0 0 .49-1.86 2.88 2.88 0 0 0-1.56-2.91 11.93 11.93 0 0 0-4.76-.72zm6.1 11.7h-6.1v8.46h6.3q5.95 0 5.95-4.29a3.5 3.5 0 0 0-1.54-3.18 8.63 8.63 0 0 0-4.6-.99z" fill="#fff"/></svg>